<?xml version="1.0" encoding="utf-8"?>
<!-- Generator: Adobe Illustrator 14.0.0, SVG Export Plug-In -->
<!DOCTYPE svg PUBLIC "-//W3C//DTD SVG 1.1//EN" "http://www.w3.org/Graphics/SVG/1.1/DTD/svg11.dtd" [
	<!ENTITY ns_flows "http://ns.adobe.com/Flows/1.0/">
]>
<svg version="1.1"
   xmlns="http://www.w3.org/2000/svg" xmlns:xlink="http://www.w3.org/1999/xlink" xmlns:a="http://ns.adobe.com/AdobeSVGViewerExtensions/3.0/"
   x="0px" y="0px" width="27px" height="27px" viewBox="-6 -4 27 27" enable-background="new -2.917 -1.75 27 27"
   xml:space="preserve">
<defs>
</defs>
<path class="logo" fill="#3A3026" d="M10.583,0C4.738,0,0,4.888,0,10.917c0,6.027,4.738,10.916,10.583,10.916c5.844,0,10.584-4.889,10.584-10.916
  C21.167,4.888,16.427,0,10.583,0z M13.098,14.933c-0.2,0.781-0.644,1.525-1.334,2.23c-0.751,0.782-1.503,1.174-2.254,1.174
  c-1.012,0-1.518-0.545-1.518-1.633c0-0.491,0.113-1.104,0.341-1.841c0.015-0.03,0.372-1.026,1.07-2.99
  c0.561-1.579,0.842-2.484,0.842-2.714c0-0.292-0.106-0.437-0.319-0.437c-0.38,0-0.806,0.364-1.277,1.092
  c-0.472,0.729-0.753,1.093-0.844,1.093c-0.152,0-0.228-0.107-0.228-0.322c0-0.061,0.092-0.307,0.276-0.736
  c0.628-1.441,1.502-2.162,2.622-2.162c1.027,0,1.541,0.406,1.541,1.219c0,0.506-0.302,1.618-0.906,3.335
  c-0.79,2.331-1.193,3.511-1.208,3.542c-0.093,0.321-0.139,0.605-0.139,0.85c0,0.399,0.146,0.599,0.44,0.599
  c0.386,0,0.78-0.237,1.181-0.713c0.216-0.261,0.509-0.705,0.88-1.334c0.278-0.476,0.463-0.713,0.556-0.713
  c0.215,0.015,0.308,0.138,0.278,0.368V14.933z M13.086,4.605c-0.222,0.215-0.495,0.322-0.816,0.322s-0.594-0.107-0.816-0.322
  C11.231,4.391,11.12,4.123,11.12,3.8c0-0.291,0.115-0.552,0.345-0.782s0.498-0.345,0.805-0.345c0.307,0,0.575,0.111,0.805,0.333
  c0.23,0.223,0.345,0.487,0.345,0.793C13.42,4.123,13.309,4.391,13.086,4.605z"/>
</svg>
